<?xml version="1.0" encoding="UTF-8" standalone="no"?>
<!DOCTYPE svg PUBLIC "-//W3C//DTD SVG 1.1//EN"
 "http://www.w3.org/Graphics/SVG/1.1/DTD/svg11.dtd">
<!-- Generated by graphviz version 2.40.1 (20161225.0304)
 -->
<!-- Title: G Pages: 1 -->
<svg width="503pt" height="358pt"
 viewBox="0.00 0.00 503.00 358.00" xmlns="http://www.w3.org/2000/svg" xmlns:xlink="http://www.w3.org/1999/xlink">
<g id="graph0" class="graph" transform="scale(1 1) rotate(0) translate(4 354)">
<title>G</title>
<polygon fill="#ffffff" stroke="transparent" points="-4,4 -4,-354 499,-354 499,4 -4,4"/>
<g id="clust1" class="cluster">
<title>cluster_Global</title>
<path fill="none" stroke="#c0c0c0" d="M20,-8C20,-8 475,-8 475,-8 481,-8 487,-14 487,-20 487,-20 487,-330 487,-330 487,-336 481,-342 475,-342 475,-342 20,-342 20,-342 14,-342 8,-336 8,-330 8,-330 8,-20 8,-20 8,-14 14,-8 20,-8"/>
<text text-anchor="middle" x="247.5" y="-329.2" font-family="Times,serif" font-size="11.00" fill="#c0c0c0">Global</text>
</g>
<g id="clust2" class="cluster">
<title>cluster_\abdulmueid</title>
<path fill="none" stroke="#c0c0c0" d="M28,-16C28,-16 467,-16 467,-16 473,-16 479,-22 479,-28 479,-28 479,-302 479,-302 479,-308 473,-314 467,-314 467,-314 28,-314 28,-314 22,-314 16,-308 16,-302 16,-302 16,-28 16,-28 16,-22 22,-16 28,-16"/>
<text text-anchor="middle" x="247.5" y="-301.2" font-family="Times,serif" font-size="11.00" fill="#c0c0c0">abdulmueid</text>
</g>
<g id="clust3" class="cluster">
<title>cluster_\abdulmueid\mpesa</title>
<path fill="none" stroke="#c0c0c0" d="M36,-24C36,-24 459,-24 459,-24 465,-24 471,-30 471,-36 471,-36 471,-274 471,-274 471,-280 465,-286 459,-286 459,-286 36,-286 36,-286 30,-286 24,-280 24,-274 24,-274 24,-36 24,-36 24,-30 30,-24 36,-24"/>
<text text-anchor="middle" x="247.5" y="-273.2" font-family="Times,serif" font-size="11.00" fill="#c0c0c0">mpesa</text>
</g>
<g id="clust4" class="cluster">
<title>cluster_\abdulmueid\mpesa\interfaces</title>
<path fill="none" stroke="#c0c0c0" d="M44,-32C44,-32 242,-32 242,-32 248,-32 254,-38 254,-44 254,-44 254,-200 254,-200 254,-206 248,-212 242,-212 242,-212 44,-212 44,-212 38,-212 32,-206 32,-200 32,-200 32,-44 32,-44 32,-38 38,-32 44,-32"/>
<text text-anchor="middle" x="143" y="-199.2" font-family="Times,serif" font-size="11.00" fill="#c0c0c0">interfaces</text>
</g>
<g id="clust5" class="cluster">
<title>cluster_\abdulmueid\mpesa\helpers</title>
<path fill="none" stroke="#c0c0c0" d="M332,-186C332,-186 449,-186 449,-186 455,-186 461,-192 461,-198 461,-198 461,-246 461,-246 461,-252 455,-258 449,-258 449,-258 332,-258 332,-258 326,-258 320,-252 320,-246 320,-246 320,-198 320,-198 320,-192 326,-186 332,-186"/>
<text text-anchor="middle" x="390.5" y="-245.2" font-family="Times,serif" font-size="11.00" fill="#c0c0c0">helpers</text>
</g>
<!-- \\abdulmueid\\mpesa\\interfaces\\TransactionInterface -->
<g id="node1" class="node">
<title>\\abdulmueid\\mpesa\\interfaces\\TransactionInterface</title>
<polygon fill="none" stroke="#000000" points="219,-184 67,-184 67,-148 219,-148 219,-184"/>
<text text-anchor="middle" x="143" y="-163.2" font-family="Courier,monospace" font-size="11.00" fill="#000000">TransactionInterface</text>
</g>
<!-- \\abdulmueid\\mpesa\\interfaces\\TransactionResponseInterface -->
<g id="node2" class="node">
<title>\\abdulmueid\\mpesa\\interfaces\\TransactionResponseInterface</title>
<polygon fill="none" stroke="#000000" points="246,-130 40,-130 40,-94 246,-94 246,-130"/>
<text text-anchor="middle" x="143" y="-109.2" font-family="Courier,monospace" font-size="11.00" fill="#000000">TransactionResponseInterface</text>
</g>
<!-- \\abdulmueid\\mpesa\\interfaces\\ConfigInterface -->
<g id="node3" class="node">
<title>\\abdulmueid\\mpesa\\interfaces\\ConfigInterface</title>
<polygon fill="none" stroke="#000000" points="202,-76 84,-76 84,-40 202,-40 202,-76"/>
<text text-anchor="middle" x="143" y="-55.2" font-family="Courier,monospace" font-size="11.00" fill="#000000">ConfigInterface</text>
</g>
<!-- \\abdulmueid\\mpesa\\helpers\\ValidationHelper -->
<g id="node4" class="node">
<title>\\abdulmueid\\mpesa\\helpers\\ValidationHelper</title>
<polygon fill="none" stroke="#000000" points="453,-230 328,-230 328,-194 453,-194 453,-230"/>
<text text-anchor="middle" x="390.5" y="-209.2" font-family="Courier,monospace" font-size="11.00" fill="#000000">ValidationHelper</text>
</g>
<!-- \\abdulmueid\\mpesa\\Transaction -->
<g id="node5" class="node">
<title>\\abdulmueid\\mpesa\\Transaction</title>
<polygon fill="none" stroke="#000000" points="436,-176 345,-176 345,-140 436,-140 436,-176"/>
<text text-anchor="middle" x="390.5" y="-155.2" font-family="Courier,monospace" font-size="11.00" fill="#000000">Transaction</text>
</g>
<!-- \\abdulmueid\\mpesa\\Transaction&#45;&gt;\\abdulmueid\\mpesa\\interfaces\\TransactionInterface -->
<g id="edge1" class="edge">
<title>\\abdulmueid\\mpesa\\Transaction&#45;&gt;\\abdulmueid\\mpesa\\interfaces\\TransactionInterface</title>
<path fill="none" stroke="#000000" stroke-dasharray="1,5" d="M344.8163,-159.4766C312.5055,-160.521 268.1938,-161.9533 229.3213,-163.2098"/>
<polygon fill="none" stroke="#000000" points="228.9246,-159.7207 219.043,-163.542 229.1508,-166.7171 228.9246,-159.7207"/>
</g>
<!-- \\abdulmueid\\mpesa\\TransactionResponse -->
<g id="node6" class="node">
<title>\\abdulmueid\\mpesa\\TransactionResponse</title>
<polygon fill="none" stroke="#000000" points="463,-122 318,-122 318,-86 463,-86 463,-122"/>
<text text-anchor="middle" x="390.5" y="-101.2" font-family="Courier,monospace" font-size="11.00" fill="#000000">TransactionResponse</text>
</g>
<!-- \\abdulmueid\\mpesa\\TransactionResponse&#45;&gt;\\abdulmueid\\mpesa\\interfaces\\TransactionResponseInterface -->
<g id="edge2" class="edge">
<title>\\abdulmueid\\mpesa\\TransactionResponse&#45;&gt;\\abdulmueid\\mpesa\\interfaces\\TransactionResponseInterface</title>
<path fill="none" stroke="#000000" stroke-dasharray="1,5" d="M317.9141,-106.3462C298.6693,-106.9683 277.4208,-107.6551 256.561,-108.3293"/>
<polygon fill="none" stroke="#000000" points="256.2441,-104.8377 246.3624,-108.659 256.4703,-111.834 256.2441,-104.8377"/>
</g>
<!-- \\abdulmueid\\mpesa\\Config -->
<g id="node7" class="node">
<title>\\abdulmueid\\mpesa\\Config</title>
<polygon fill="none" stroke="#000000" points="419,-68 362,-68 362,-32 419,-32 419,-68"/>
<text text-anchor="middle" x="390.5" y="-47.2" font-family="Courier,monospace" font-size="11.00" fill="#000000">Config</text>
</g>
<!-- \\abdulmueid\\mpesa\\Config&#45;&gt;\\abdulmueid\\mpesa\\interfaces\\ConfigInterface -->
<g id="edge3" class="edge">
<title>\\abdulmueid\\mpesa\\Config&#45;&gt;\\abdulmueid\\mpesa\\interfaces\\ConfigInterface</title>
<path fill="none" stroke="#000000" stroke-dasharray="1,5" d="M361.6242,-50.9334C325.3148,-52.107 261.7721,-54.1609 212.5179,-55.753"/>
<polygon fill="none" stroke="#000000" points="212.1211,-52.2639 202.2394,-56.0852 212.3473,-59.2602 212.1211,-52.2639"/>
</g>
</g>
</svg>
