<?xml version="1.0" encoding="UTF-8" standalone="no"?>
<!DOCTYPE svg PUBLIC "-//W3C//DTD SVG 1.1//EN"
 "http://www.w3.org/Graphics/SVG/1.1/DTD/svg11.dtd">
<!-- Generated by graphviz version 2.38.0 (20140413.2041)
 -->
<!-- Title: G Pages: 1 -->
<svg width="503pt" height="312pt"
 viewBox="0.00 0.00 503.00 312.00" xmlns="http://www.w3.org/2000/svg" xmlns:xlink="http://www.w3.org/1999/xlink">
<g id="graph0" class="graph" transform="scale(1 1) rotate(0) translate(4 308)">
<title>G</title>
<polygon fill="white" stroke="none" points="-4,4 -4,-308 499,-308 499,4 -4,4"/>
<g id="clust1" class="cluster"><title>cluster_Global</title>
<path fill="none" stroke="gray" d="M20,-8C20,-8 475,-8 475,-8 481,-8 487,-14 487,-20 487,-20 487,-284 487,-284 487,-290 481,-296 475,-296 475,-296 20,-296 20,-296 14,-296 8,-290 8,-284 8,-284 8,-20 8,-20 8,-14 14,-8 20,-8"/>
<text text-anchor="middle" x="247.5" y="-283.2" font-family="Times,serif" font-size="11.00" fill="gray">Global</text>
</g>
<g id="clust2" class="cluster"><title>cluster_\abdulmueid</title>
<path fill="none" stroke="gray" d="M28,-16C28,-16 467,-16 467,-16 473,-16 479,-22 479,-28 479,-28 479,-256 479,-256 479,-262 473,-268 467,-268 467,-268 28,-268 28,-268 22,-268 16,-262 16,-256 16,-256 16,-28 16,-28 16,-22 22,-16 28,-16"/>
<text text-anchor="middle" x="247.5" y="-255.2" font-family="Times,serif" font-size="11.00" fill="gray">abdulmueid</text>
</g>
<g id="clust3" class="cluster"><title>cluster_\abdulmueid\mpesa</title>
<path fill="none" stroke="gray" d="M36,-24C36,-24 459,-24 459,-24 465,-24 471,-30 471,-36 471,-36 471,-228 471,-228 471,-234 465,-240 459,-240 459,-240 36,-240 36,-240 30,-240 24,-234 24,-228 24,-228 24,-36 24,-36 24,-30 30,-24 36,-24"/>
<text text-anchor="middle" x="247.5" y="-227.2" font-family="Times,serif" font-size="11.00" fill="gray">mpesa</text>
</g>
<g id="clust4" class="cluster"><title>cluster_\abdulmueid\mpesa\interfaces</title>
<path fill="none" stroke="gray" d="M44,-32C44,-32 242,-32 242,-32 248,-32 254,-38 254,-44 254,-44 254,-200 254,-200 254,-206 248,-212 242,-212 242,-212 44,-212 44,-212 38,-212 32,-206 32,-200 32,-200 32,-44 32,-44 32,-38 38,-32 44,-32"/>
<text text-anchor="middle" x="143" y="-199.2" font-family="Times,serif" font-size="11.00" fill="gray">interfaces</text>
</g>
<!-- \\abdulmueid\\mpesa\\interfaces\\ConfigInterface -->
<g id="node1" class="node"><title>\\abdulmueid\\mpesa\\interfaces\\ConfigInterface</title>
<polygon fill="none" stroke="black" points="202,-184 84,-184 84,-148 202,-148 202,-184"/>
<text text-anchor="middle" x="143" y="-163.2" font-family="Courier,monospace" font-size="11.00">ConfigInterface</text>
</g>
<!-- \\abdulmueid\\mpesa\\interfaces\\TransactionInterface -->
<g id="node2" class="node"><title>\\abdulmueid\\mpesa\\interfaces\\TransactionInterface</title>
<polygon fill="none" stroke="black" points="219,-130 67,-130 67,-94 219,-94 219,-130"/>
<text text-anchor="middle" x="143" y="-109.2" font-family="Courier,monospace" font-size="11.00">TransactionInterface</text>
</g>
<!-- \\abdulmueid\\mpesa\\interfaces\\TransactionResponseInterface -->
<g id="node3" class="node"><title>\\abdulmueid\\mpesa\\interfaces\\TransactionResponseInterface</title>
<polygon fill="none" stroke="black" points="246,-76 40,-76 40,-40 246,-40 246,-76"/>
<text text-anchor="middle" x="143" y="-55.2" font-family="Courier,monospace" font-size="11.00">TransactionResponseInterface</text>
</g>
<!-- \\abdulmueid\\mpesa\\Config -->
<g id="node4" class="node"><title>\\abdulmueid\\mpesa\\Config</title>
<polygon fill="none" stroke="black" points="419,-184 362,-184 362,-148 419,-148 419,-184"/>
<text text-anchor="middle" x="390.5" y="-163.2" font-family="Courier,monospace" font-size="11.00">Config</text>
</g>
<!-- \\abdulmueid\\mpesa\\Config&#45;&gt;\\abdulmueid\\mpesa\\interfaces\\ConfigInterface -->
<g id="edge1" class="edge"><title>\\abdulmueid\\mpesa\\Config&#45;&gt;\\abdulmueid\\mpesa\\interfaces\\ConfigInterface</title>
<path fill="none" stroke="black" stroke-dasharray="1,5" d="M361.815,-166C325.874,-166 261.916,-166 212.571,-166"/>
<polygon fill="none" stroke="black" points="212.279,-162.5 202.279,-166 212.279,-169.5 212.279,-162.5"/>
</g>
<!-- \\abdulmueid\\mpesa\\Transaction -->
<g id="node5" class="node"><title>\\abdulmueid\\mpesa\\Transaction</title>
<polygon fill="none" stroke="black" points="436,-130 345,-130 345,-94 436,-94 436,-130"/>
<text text-anchor="middle" x="390.5" y="-109.2" font-family="Courier,monospace" font-size="11.00">Transaction</text>
</g>
<!-- \\abdulmueid\\mpesa\\Transaction&#45;&gt;\\abdulmueid\\mpesa\\interfaces\\TransactionInterface -->
<g id="edge2" class="edge"><title>\\abdulmueid\\mpesa\\Transaction&#45;&gt;\\abdulmueid\\mpesa\\interfaces\\TransactionInterface</title>
<path fill="none" stroke="black" stroke-dasharray="1,5" d="M344.757,-112C312.637,-112 268.349,-112 229.541,-112"/>
<polygon fill="none" stroke="black" points="229.281,-108.5 219.281,-112 229.281,-115.5 229.281,-108.5"/>
</g>
<!-- \\abdulmueid\\mpesa\\TransactionResponse -->
<g id="node6" class="node"><title>\\abdulmueid\\mpesa\\TransactionResponse</title>
<polygon fill="none" stroke="black" points="463,-76 318,-76 318,-40 463,-40 463,-76"/>
<text text-anchor="middle" x="390.5" y="-55.2" font-family="Courier,monospace" font-size="11.00">TransactionResponse</text>
</g>
<!-- \\abdulmueid\\mpesa\\TransactionResponse&#45;&gt;\\abdulmueid\\mpesa\\interfaces\\TransactionResponseInterface -->
<g id="edge3" class="edge"><title>\\abdulmueid\\mpesa\\TransactionResponse&#45;&gt;\\abdulmueid\\mpesa\\interfaces\\TransactionResponseInterface</title>
<path fill="none" stroke="black" stroke-dasharray="1,5" d="M317.831,-58C298.614,-58 277.364,-58 256.511,-58"/>
<polygon fill="none" stroke="black" points="256.317,-54.5001 246.317,-58 256.317,-61.5001 256.317,-54.5001"/>
</g>
</g>
</svg>
